<svg width="23" height="23" viewBox="0 0 23 23" fill="none" xmlns="http://www.w3.org/2000/svg">
<path d="M13.6072 11.5189L22.5629 2.56284C23.1457 1.98029 23.1457 1.03839 22.5629 0.455835C21.9804 -0.126717 21.0385 -0.126717 20.4559 0.455835L11.4999 9.41185L2.54413 0.455835C1.96131 -0.126717 1.01967 -0.126717 0.437119 0.455835C-0.145706 1.03839 -0.145706 1.98029 0.437119 2.56284L9.39287 11.5189L0.437119 20.4749C-0.145706 21.0574 -0.145706 21.9993 0.437119 22.5819C0.72744 22.8725 1.10917 23.0185 1.49062 23.0185C1.87208 23.0185 2.25354 22.8725 2.54413 22.5819L11.4999 13.6259L20.4559 22.5819C20.7465 22.8725 21.128 23.0185 21.5094 23.0185C21.8909 23.0185 22.2723 22.8725 22.5629 22.5819C23.1457 21.9993 23.1457 21.0574 22.5629 20.4749L13.6072 11.5189Z" fill="white"/>
</svg>
